<?xml version="1.0" standalone="no"?>
<!DOCTYPE svg PUBLIC "-//W3C//DTD SVG 20010904//EN"
 "http://www.w3.org/TR/2001/REC-SVG-20010904/DTD/svg10.dtd">
<svg version="1.0" xmlns="http://www.w3.org/2000/svg"
 width="180.000000pt" height="180.000000pt" viewBox="0 0 180.000000 180.000000"
 preserveAspectRatio="xMidYMid meet">
<metadata>
Created by potrace 1.14, written by Peter Selinger 2001-2017
</metadata>
<g transform="translate(0.000000,180.000000) scale(0.100000,-0.100000)"
fill="#000000" stroke="none">
<path d="M668 1593 c-3 -5 -4 -15 -4 -23 1 -22 442 -32 463 -11 32 32 9 36
-225 39 -127 1 -232 -1 -234 -5z"/>
<path d="M1419 1588 c0 -7 -2 -26 -3 -41 -1 -16 1 -30 4 -32 12 -8 28 11 30
35 4 41 1 50 -15 50 -8 0 -15 -6 -16 -12z"/>
<path d="M1333 1563 c-10 -3 -9 -8 2 -19 18 -18 55 -10 55 12 0 14 -31 18 -57
7z"/>
<path d="M1287 1510 c-4 -17 0 -20 25 -20 30 0 31 0 13 20 -10 11 -21 20 -25
20 -4 0 -10 -9 -13 -20z"/>
<path d="M620 1510 c-9 -6 -15 -27 -16 -60 l-2 -50 77 0 c70 0 79 2 99 25 57
66 177 68 239 4 26 -26 34 -28 104 -29 l76 0 -1 50 c-1 33 -6 54 -16 60 -20
13 -540 13 -560 0z"/>
<path d="M1228 1453 c-2 -4 -3 -14 -2 -20 1 -7 2 -17 3 -23 0 -5 8 -10 17 -10
11 0 14 8 12 27 -3 26 -22 42 -30 26z"/>
<path d="M1289 1448 c-2 -15 2 -42 6 -46 1 -1 10 0 19 4 24 9 21 54 -4 54 -11
0 -21 -6 -21 -12z"/>
<path d="M845 1436 c-36 -16 -85 -70 -86 -94 0 -9 -2 -27 -5 -39 -5 -27 18
-83 43 -105 102 -93 259 -17 248 121 -7 89 -119 154 -200 117z m91 -59 c27
-10 53 -60 46 -93 -6 -32 -47 -64 -83 -64 -35 0 -77 37 -81 71 -4 36 20 77 51
87 28 10 35 10 67 -1z"/>
<path d="M446 1348 c-28 -27 -96 -211 -96 -263 l0 -34 203 2 202 2 3 65 c2 42
-2 76 -12 100 -21 45 -25 77 -16 117 l8 33 -133 0 c-125 0 -136 -2 -159 -22z
m88 -15 c8 -19 -10 -34 -31 -26 -7 3 -13 11 -13 17 0 29 34 36 44 9z"/>
<path d="M1068 1353 c12 -23 6 -86 -13 -137 -8 -23 -13 -68 -12 -101 l2 -60
203 -2 202 -2 0 33 c0 53 -67 238 -96 264 -23 20 -34 22 -160 22 -125 0 -134
-1 -126 -17z m239 -19 c7 -20 -17 -37 -34 -23 -15 13 -6 39 13 39 8 0 17 -7
21 -16z"/>
<path d="M792 1133 l3 -26 103 0 c105 -1 127 7 115 39 -3 10 -12 9 -40 -3 -40
-16 -117 -20 -136 -5 -7 5 -20 12 -30 15 -15 6 -18 2 -15 -20z"/>
<path d="M790 1063 c0 -10 26 -13 110 -12 82 1 110 5 110 15 0 9 -26 12 -110
11 -82 -1 -110 -5 -110 -14z"/>
<path d="M373 1022 c-13 -2 -23 -6 -23 -10 0 -4 248 -7 550 -7 355 0 549 3
547 10 -3 9 -1015 15 -1074 7z"/>
<path d="M199 938 c-26 -20 -50 -41 -53 -46 -3 -5 313 -9 754 -9 418 0 760 1
760 3 0 1 -23 22 -52 46 l-52 43 -655 0 -655 1 -47 -38z"/>
<path d="M109 845 c-5 -53 -5 -66 2 -71 10 -6 1570 -6 1576 0 10 9 9 67 -1 73
-17 11 -1576 9 -1577 -2z"/>
<path d="M200 742 l-105 -4 -47 -56 c-45 -53 -48 -61 -48 -114 0 -53 2 -58 23
-59 96 -2 401 1 404 5 2 2 5 29 7 59 3 46 10 64 41 107 20 28 36 53 34 55 -7
6 -195 10 -309 7z m196 -105 c4 -4 4 -10 0 -14 -8 -8 -313 -13 -333 -5 -18 6
-16 20 4 24 33 6 322 2 329 -5z"/>
<path d="M627 742 l-77 -3 -45 -66 -44 -66 2 -106 2 -106 431 -3 c405 -2 432
-1 436 15 3 10 5 59 6 108 l1 90 -44 68 -45 67 -98 0 c-53 1 -176 2 -272 3
-96 1 -210 1 -253 -1z m651 -142 c-3 -13 -55 -15 -381 -15 -355 0 -396 3 -373
26 2 2 174 4 380 4 328 0 376 -2 374 -15z"/>
<path d="M1307 742 c-9 -2 -17 -6 -17 -8 0 -3 18 -31 39 -63 34 -50 39 -64 37
-105 -1 -26 2 -50 7 -53 8 -5 101 -5 375 -3 l52 0 0 56 c0 52 -3 61 -47 115
-29 36 -56 59 -68 59 -146 3 -365 4 -378 2z m440 -105 c17 -18 -23 -23 -174
-21 -184 2 -174 1 -168 17 4 9 47 12 170 12 90 0 167 -4 172 -8z"/>
<path d="M62 482 c-59 -3 -63 -5 -60 -25 3 -22 5 -22 208 -23 113 0 210 1 217
3 11 4 12 27 1 39 -4 3 -51 5 -105 5 -77 -1 -100 -4 -110 -17 -11 -16 -38 -10
-28 6 6 10 -45 16 -123 12z"/>
<path d="M1445 480 c-77 -5 -82 -7 -76 -38 0 -4 97 -8 214 -7 l212 0 3 23 c4
24 9 23 -102 23 -56 1 -73 -3 -83 -17 -12 -16 -14 -16 -25 -2 -17 20 -46 24
-143 18z"/>
<path d="M21 402 c-17 -6 -13 -42 5 -49 9 -3 106 -6 215 -7 l199 -1 0 30 0 30
-96 0 c-80 0 -97 -3 -105 -18 -13 -22 -27 -22 -31 0 -3 15 -16 17 -89 18 -47
1 -91 -1 -98 -3z"/>
<path d="M1365 401 c-3 -2 -5 -15 -5 -28 0 -15 6 -23 18 -24 106 -6 395 0 404
9 5 5 8 18 6 28 -3 17 -14 19 -93 20 -79 0 -92 -2 -107 -20 -17 -21 -17 -21
-25 -1 -7 18 -18 20 -101 20 -51 1 -95 -1 -97 -4z"/>
<path d="M483 363 c-12 -4 7 -105 26 -140 15 -28 38 -30 46 -3 11 35 13 130 3
136 -11 7 -61 11 -75 7z"/>
<path d="M1249 362 c-28 -5 -12 -162 16 -162 19 0 42 45 50 100 4 25 9 48 11
52 3 5 -1 8 -8 9 -7 0 -22 2 -33 3 -11 1 -27 0 -36 -2z"/>
<path d="M36 311 c-3 -4 -1 -13 4 -21 8 -12 45 -15 204 -16 108 0 200 2 206 6
6 4 8 14 4 24 -6 14 -20 17 -95 15 -71 -1 -91 -5 -99 -18 -8 -15 -9 -14 -15 1
-6 15 -21 17 -106 17 -54 0 -101 -4 -103 -8z"/>
<path d="M1346 303 c-3 -8 -4 -18 -2 -22 3 -4 95 -7 206 -7 167 1 202 4 210
16 5 8 10 18 10 23 0 4 -44 7 -97 7 -75 0 -100 -4 -115 -16 -16 -16 -18 -16
-24 0 -9 23 -179 22 -188 -1z"/>
<path d="M93 223 c23 -23 28 -24 188 -24 235 0 212 -3 194 25 -14 22 -22 24
-96 23 -62 0 -82 -3 -89 -16 -9 -15 -11 -15 -20 0 -8 13 -27 16 -105 16 l-96
0 24 -24z"/>
<path d="M1325 227 c-8 -11 -13 -23 -11 -25 2 -2 85 -4 184 -4 178 0 214 6
226 38 7 18 -182 13 -195 -6 -8 -13 -11 -13 -19 1 -7 13 -27 16 -90 16 -70 1
-82 -2 -95 -20z"/>
</g>
</svg>
